<?xml version="1.0" encoding="utf-8"?>
<!-- Generator: Adobe Illustrator 22.0.1, SVG Export Plug-In . SVG Version: 6.00 Build 0)  -->
<svg version="1.1" id="Capa_1" xmlns="http://www.w3.org/2000/svg" xmlns:xlink="http://www.w3.org/1999/xlink" x="0px" y="0px"
	 viewBox="0 0 640 480" style="enable-background:new 0 0 640 480;" xml:space="preserve">
<style type="text/css">
	.st0{fill:#C09C60;}
</style>
<g>
	<path class="st0" d="M167.3,366.8c0.2,0,0.6,0,1.1,0c0.5,0,1.1,0,1.8,0c0.7,0,1.4,0,2.1,0c0.7,0,1.4,0,1.9,0c0.6,0,1,0,1.3,0
		c0.1,0.6,0.2,1.2,0.3,1.8s0.3,1.1,0.4,1.7c0,0-0.1,0.1-0.3,0.1c-0.1,0-0.3,0-0.3,0c-0.2,0-0.3-0.1-0.4-0.2c-0.3-0.7-0.6-1.2-1-1.7
		s-1-0.7-1.8-0.7h-2.1c-0.3,0-0.5,0-0.8,0c-0.3,0-0.4,0.1-0.5,0.2c-0.1,0.1-0.1,0.3-0.1,0.5c0,0.2,0,0.4,0,0.7c0,0,0,0.1,0,0.1
		s0,0.1,0,0.1v4.2c0,0.1,0.1,0.1,0.3,0.2c0.2,0,0.5,0.1,0.8,0.1h1.3c0.5,0,0.9,0,1.2-0.1c0.3-0.1,0.5-0.2,0.6-0.5
		c0.2-0.2,0.3-0.6,0.4-1c0-0.1,0.1-0.2,0.3-0.2c0.2,0,0.4,0,0.5,0.1v4.5c0,0-0.1,0-0.2,0c-0.1,0-0.2,0-0.3,0c-0.2,0-0.3-0.1-0.4-0.2
		c-0.2-0.6-0.3-0.9-0.5-1.1s-0.3-0.3-0.4-0.3c-0.3-0.1-0.9-0.2-1.9-0.2c-0.2,0-0.5,0-0.8,0c-0.3,0-0.5,0-0.7,0.1s-0.3,0.1-0.3,0.2
		v3.6v0c0,0.1,0,0.2,0,0.5s0,0.5,0,0.7c0,0.3,0.1,0.5,0.1,0.6c0.1,0.2,0.3,0.3,0.7,0.4c0.3,0.1,0.7,0.1,1,0.1h1.7
		c0.5,0,0.9-0.1,1.3-0.2s0.8-0.3,1-0.6c0.3-0.3,0.5-0.6,0.7-0.9c0.2-0.4,0.4-0.8,0.7-1.3c0-0.1,0.1-0.1,0.3-0.1c0.1,0,0.3,0,0.5,0
		c0.2,0,0.3,0.1,0.3,0.1c-0.2,0.4-0.3,0.9-0.5,1.4c-0.2,0.5-0.4,1-0.5,1.4s-0.3,0.9-0.3,1.2c-0.2,0-0.6,0-1.2,0s-1.4,0-2.3,0
		s-1.8,0-2.8,0c-1,0-1.9,0-2.8,0c-0.9,0-1.6,0-2.2,0c-0.6,0-1,0-1.2,0c-0.1-0.1-0.1-0.2-0.1-0.4c0-0.2,0-0.4,0.1-0.4
		c0.1,0,0.3,0,0.5-0.1s0.5-0.1,0.7-0.1c0.2-0.1,0.4-0.1,0.4-0.2c0.1-0.2,0.2-0.5,0.2-0.9c0-0.4,0-0.8,0-1.3v-8.6c0-0.5,0-0.9,0-1.3
		c0-0.4-0.1-0.7-0.2-0.9c0-0.1-0.2-0.2-0.4-0.2s-0.5-0.1-0.7-0.1s-0.4,0-0.5,0c-0.1-0.1-0.1-0.2-0.1-0.5c0-0.2,0-0.4,0.1-0.4
		c0.6,0,1.2,0.1,1.9,0.1C166.1,366.8,166.7,366.8,167.3,366.8z"/>
	<path class="st0" d="M189.4,378.9L189.4,378.9c0,0.1,0,0.3,0,0.5s0,0.5,0,0.7c0,0.3,0.1,0.5,0.1,0.6c0.1,0.2,0.3,0.3,0.7,0.4
		c0.3,0.1,0.7,0.1,1,0.1h1.7c0.5,0,0.9-0.1,1.3-0.2s0.8-0.3,1-0.6c0.3-0.3,0.5-0.6,0.7-0.9c0.2-0.4,0.4-0.8,0.7-1.3
		c0-0.1,0.1-0.1,0.3-0.1c0.1,0,0.3,0,0.5,0c0.2,0,0.3,0.1,0.3,0.1c-0.2,0.4-0.3,0.9-0.5,1.4c-0.2,0.5-0.4,1-0.5,1.4
		s-0.3,0.9-0.3,1.2h-8.8c-0.9,0-1.7,0-2.4,0s-1.1,0-1.3,0c-0.1-0.1-0.1-0.2-0.1-0.4c0-0.2,0-0.4,0.1-0.4c0.1,0,0.3,0,0.5-0.1
		s0.5-0.1,0.7-0.1c0.2-0.1,0.4-0.1,0.4-0.2c0.1-0.2,0.2-0.5,0.2-0.9c0-0.4,0-0.8,0-1.3v-8.6c0-0.5,0-0.9,0-1.3
		c0-0.4-0.1-0.7-0.2-0.9c0-0.1-0.2-0.2-0.4-0.3s-0.5-0.1-0.7-0.1c-0.2,0-0.4,0-0.5,0c-0.1-0.1-0.1-0.2-0.1-0.4c0-0.2,0-0.4,0.1-0.4
		c0.5,0,1.1,0.1,1.8,0.1c0.7,0,1.3,0,1.9,0c0.5,0,1.2,0,1.8,0c0.7,0,1.3-0.1,1.8-0.1c0.1,0.1,0.1,0.2,0.1,0.4c0,0.2,0,0.4-0.1,0.4
		c-0.1,0-0.3,0-0.5,0c-0.3,0-0.5,0.1-0.7,0.1c-0.2,0.1-0.4,0.1-0.4,0.3c-0.1,0.2-0.1,0.5-0.2,0.8c0,0.3,0,0.7,0,1.1c0,0,0,0.1,0,0.2
		c0,0.1,0,0.1,0,0.2V378.9z"/>
	<path class="st0" d="M207.4,366.9c0.5,0,1.2,0,1.8,0c0.7,0,1.3-0.1,1.8-0.1c0.1,0.1,0.1,0.2,0.1,0.4c0,0.2,0,0.4-0.1,0.4
		c-0.1,0-0.3,0-0.5,0c-0.3,0-0.5,0.1-0.7,0.1c-0.2,0.1-0.4,0.1-0.4,0.3c-0.1,0.2-0.1,0.5-0.2,0.8c0,0.3,0,0.7,0,1.1c0,0,0,0.1,0,0.2
		c0,0.1,0,0.1,0,0.2v8.6c0,0,0,0.1,0,0.2c0,0.1,0,0.1,0,0.2c0,0.4,0,0.8,0,1.1c0,0.3,0.1,0.6,0.2,0.8c0.1,0.1,0.2,0.2,0.4,0.2
		c0.2,0.1,0.5,0.1,0.7,0.1c0.3,0,0.4,0,0.5,0.1c0.1,0.1,0.1,0.2,0.1,0.4c0,0.2,0,0.4-0.1,0.4c-0.5,0-1.1-0.1-1.8-0.1
		c-0.7,0-1.3,0-1.9,0c-0.5,0-1.1,0-1.8,0c-0.7,0-1.3,0.1-1.8,0.1c-0.1-0.1-0.1-0.2-0.1-0.4c0-0.2,0-0.4,0.1-0.4c0.1,0,0.3,0,0.5-0.1
		c0.2,0,0.5-0.1,0.7-0.1c0.2-0.1,0.4-0.1,0.4-0.2c0.1-0.2,0.2-0.5,0.2-0.9c0-0.4,0-0.8,0-1.3v-8.6c0-0.5,0-0.9,0-1.3
		c0-0.4-0.1-0.7-0.2-0.9c0-0.1-0.2-0.2-0.4-0.3s-0.5-0.1-0.7-0.1c-0.2,0-0.4,0-0.5,0c-0.1-0.1-0.1-0.2-0.1-0.4c0-0.2,0-0.4,0.1-0.4
		c0.5,0,1.1,0.1,1.8,0.1C206.3,366.9,206.9,366.9,207.4,366.9z"/>
	<path class="st0" d="M229.3,366.8c0.6,0,1.1,0,1.4-0.1c0.3-0.1,0.6-0.1,0.7-0.2c0.2-0.1,0.3-0.1,0.5-0.1c0.1,0,0.2,0,0.2,0
		c0,0,0.1,0,0.1,0.1l0.7,4.3c0,0-0.1,0.1-0.3,0.1c-0.2,0-0.3,0.1-0.4,0.1c-0.2,0-0.2,0-0.3-0.1c-0.1-0.5-0.3-1-0.5-1.4
		c-0.3-0.4-0.6-0.8-1-1.1c-0.4-0.3-0.8-0.4-1.2-0.4h-2.4v11c0,0.5,0,0.9,0,1.3c0,0.4,0.1,0.7,0.2,0.9c0.1,0.1,0.2,0.2,0.4,0.2
		c0.2,0.1,0.4,0.1,0.7,0.1c0.2,0,0.4,0,0.5,0.1c0.1,0.1,0.1,0.2,0.1,0.4c0,0.2,0,0.4-0.1,0.4c-0.5,0-1.1-0.1-1.8-0.1
		c-0.7,0-1.3,0-1.9,0c-0.5,0-1.1,0-1.8,0c-0.7,0-1.3,0.1-1.8,0.1c-0.1-0.1-0.1-0.2-0.1-0.4c0-0.2,0-0.4,0.1-0.4c0.1,0,0.3,0,0.5-0.1
		c0.2,0,0.5-0.1,0.7-0.1c0.2-0.1,0.4-0.1,0.4-0.2c0.1-0.2,0.2-0.5,0.2-0.9c0-0.4,0-0.8,0-1.3v-11h-2.4c-0.4,0-0.8,0.1-1.2,0.4
		c-0.4,0.3-0.7,0.6-1,1.1c-0.3,0.4-0.4,0.9-0.5,1.4c0,0.1-0.1,0.1-0.3,0.1c-0.1,0-0.3,0-0.4-0.1c-0.2,0-0.3-0.1-0.3-0.1l0.7-4.3
		c0.1,0,0.1-0.1,0.1-0.1c0,0,0.1,0,0.2,0c0.2,0,0.3,0,0.5,0.1s0.4,0.1,0.7,0.2c0.3,0.1,0.8,0.1,1.4,0.1H229.3z"/>
	<path class="st0" d="M242.8,366.8c0.2,0,0.6,0,1.1,0c0.5,0,1.1,0,1.8,0c0.7,0,1.4,0,2.1,0c0.7,0,1.4,0,1.9,0c0.6,0,1,0,1.3,0
		c0.1,0.6,0.2,1.2,0.3,1.8s0.3,1.1,0.4,1.7c0,0-0.1,0.1-0.3,0.1c-0.1,0-0.3,0-0.3,0c-0.2,0-0.3-0.1-0.4-0.2c-0.3-0.7-0.6-1.2-1-1.7
		s-1-0.7-1.8-0.7H246c-0.3,0-0.5,0-0.8,0c-0.3,0-0.4,0.1-0.5,0.2c-0.1,0.1-0.1,0.3-0.1,0.5c0,0.2,0,0.4,0,0.7c0,0,0,0.1,0,0.1
		s0,0.1,0,0.1v4.2c0,0.1,0.1,0.1,0.3,0.2c0.2,0,0.5,0.1,0.8,0.1h1.3c0.5,0,0.9,0,1.2-0.1c0.3-0.1,0.5-0.2,0.6-0.5
		c0.2-0.2,0.3-0.6,0.4-1c0-0.1,0.1-0.2,0.3-0.2c0.2,0,0.4,0,0.5,0.1v4.5c0,0-0.1,0-0.2,0c-0.1,0-0.2,0-0.3,0c-0.2,0-0.3-0.1-0.4-0.2
		c-0.2-0.6-0.3-0.9-0.5-1.1s-0.3-0.3-0.4-0.3c-0.3-0.1-0.9-0.2-1.9-0.2c-0.2,0-0.5,0-0.8,0c-0.3,0-0.5,0-0.7,0.1s-0.3,0.1-0.3,0.2
		v3.6v0c0,0.1,0,0.2,0,0.5s0,0.5,0,0.7c0,0.3,0.1,0.5,0.1,0.6c0.1,0.2,0.3,0.3,0.7,0.4c0.3,0.1,0.7,0.1,1,0.1h1.7
		c0.5,0,0.9-0.1,1.3-0.2s0.8-0.3,1-0.6c0.3-0.3,0.5-0.6,0.7-0.9c0.2-0.4,0.4-0.8,0.7-1.3c0-0.1,0.1-0.1,0.3-0.1c0.1,0,0.3,0,0.5,0
		c0.2,0,0.3,0.1,0.3,0.1c-0.2,0.4-0.3,0.9-0.5,1.4c-0.2,0.5-0.4,1-0.5,1.4s-0.3,0.9-0.3,1.2c-0.2,0-0.6,0-1.2,0s-1.4,0-2.3,0
		s-1.8,0-2.8,0c-1,0-1.9,0-2.8,0c-0.9,0-1.6,0-2.2,0c-0.6,0-1,0-1.2,0c-0.1-0.1-0.1-0.2-0.1-0.4c0-0.2,0-0.4,0.1-0.4
		c0.1,0,0.3,0,0.5-0.1s0.5-0.1,0.7-0.1c0.2-0.1,0.4-0.1,0.4-0.2c0.1-0.2,0.2-0.5,0.2-0.9c0-0.4,0-0.8,0-1.3v-8.6c0-0.5,0-0.9,0-1.3
		c0-0.4-0.1-0.7-0.2-0.9c0-0.1-0.2-0.2-0.4-0.2s-0.5-0.1-0.7-0.1s-0.4,0-0.5,0c-0.1-0.1-0.1-0.2-0.1-0.5c0-0.2,0-0.4,0.1-0.4
		c0.6,0,1.2,0.1,1.9,0.1C241.7,366.8,242.3,366.8,242.8,366.8z"/>
	<path class="st0" d="M275.9,366.8c0.2,0,0.6,0,1.1,0c0.5,0,1.1,0,1.8,0c0.7,0,1.4,0,2.1,0c0.7,0,1.4,0,1.9,0c0.6,0,1,0,1.3,0
		c0.1,0.6,0.2,1.2,0.3,1.8s0.3,1.1,0.4,1.7c0,0-0.1,0.1-0.3,0.1c-0.1,0-0.3,0-0.3,0c-0.2,0-0.3-0.1-0.4-0.2c-0.3-0.7-0.6-1.2-1-1.7
		s-1-0.7-1.8-0.7h-2.1c-0.3,0-0.5,0-0.8,0c-0.3,0-0.4,0.1-0.5,0.2c-0.1,0.1-0.1,0.3-0.1,0.5c0,0.2,0,0.4,0,0.7c0,0,0,0.1,0,0.1
		s0,0.1,0,0.1v4.2c0,0.1,0.1,0.1,0.3,0.2c0.2,0,0.5,0.1,0.8,0.1h1.3c0.5,0,0.9,0,1.2-0.1c0.3-0.1,0.5-0.2,0.6-0.5
		c0.2-0.2,0.3-0.6,0.4-1c0-0.1,0.1-0.2,0.3-0.2c0.2,0,0.4,0,0.5,0.1v4.5c0,0-0.1,0-0.2,0c-0.1,0-0.2,0-0.3,0c-0.2,0-0.3-0.1-0.4-0.2
		c-0.2-0.6-0.3-0.9-0.5-1.1s-0.3-0.3-0.4-0.3c-0.3-0.1-0.9-0.2-1.9-0.2c-0.2,0-0.5,0-0.8,0c-0.3,0-0.5,0-0.7,0.1s-0.3,0.1-0.3,0.2
		v3.6v0c0,0.1,0,0.2,0,0.5s0,0.5,0,0.7c0,0.3,0.1,0.5,0.1,0.6c0.1,0.2,0.3,0.3,0.7,0.4c0.3,0.1,0.7,0.1,1,0.1h1.7
		c0.5,0,0.9-0.1,1.3-0.2s0.8-0.3,1-0.6c0.3-0.3,0.5-0.6,0.7-0.9c0.2-0.4,0.4-0.8,0.7-1.3c0-0.1,0.1-0.1,0.3-0.1c0.1,0,0.3,0,0.5,0
		c0.2,0,0.3,0.1,0.3,0.1c-0.2,0.4-0.3,0.9-0.5,1.4c-0.2,0.5-0.4,1-0.5,1.4s-0.3,0.9-0.3,1.2c-0.2,0-0.6,0-1.2,0s-1.4,0-2.3,0
		s-1.8,0-2.8,0c-1,0-1.9,0-2.8,0c-0.9,0-1.6,0-2.2,0c-0.6,0-1,0-1.2,0c-0.1-0.1-0.1-0.2-0.1-0.4c0-0.2,0-0.4,0.1-0.4
		c0.1,0,0.3,0,0.5-0.1s0.5-0.1,0.7-0.1c0.2-0.1,0.4-0.1,0.4-0.2c0.1-0.2,0.2-0.5,0.2-0.9c0-0.4,0-0.8,0-1.3v-8.6c0-0.5,0-0.9,0-1.3
		c0-0.4-0.1-0.7-0.2-0.9c0-0.1-0.2-0.2-0.4-0.2s-0.5-0.1-0.7-0.1s-0.4,0-0.5,0c-0.1-0.1-0.1-0.2-0.1-0.5c0-0.2,0-0.4,0.1-0.4
		c0.6,0,1.2,0.1,1.9,0.1C274.8,366.8,275.4,366.8,275.9,366.8z"/>
	<path class="st0" d="M296.2,366.9c0.6,0,1.3,0,1.9,0c0.7,0,1.2-0.1,1.7-0.1c0,0,0,0.1,0,0.3s0,0.3,0,0.4s0,0.2-0.1,0.2
		c-0.1,0-0.3,0-0.5,0c-0.2,0-0.4,0.1-0.6,0.1c-0.2,0.1-0.3,0.2-0.3,0.3c0,0.2,0.1,0.4,0.2,0.5l2.8,3.9c0.4-0.4,0.8-0.9,1.3-1.5
		c0.5-0.5,0.9-1,1.3-1.5c0.4-0.5,0.6-0.8,0.8-1.1c0.1-0.1,0.1-0.2,0.1-0.2c0-0.2-0.2-0.4-0.6-0.5s-0.8-0.2-1.3-0.2
		c0,0-0.1-0.1-0.1-0.2c0-0.1,0-0.3,0-0.4c0-0.1,0-0.2,0.1-0.3c0.5,0,1,0.1,1.7,0.1c0.7,0,1.2,0,1.7,0c1.3,0,2.3,0,3.1-0.1
		c0,0,0.1,0.1,0.1,0.3c0,0.1,0,0.3,0,0.4c0,0.1,0,0.2-0.1,0.2c-0.1,0-0.3,0-0.6,0.1c-0.3,0-0.7,0.1-1.1,0.3
		c-0.4,0.2-0.8,0.5-1.2,0.9l-4.4,4.8c0.5,0.7,1.1,1.5,1.6,2.3c0.6,0.8,1.1,1.5,1.6,2.1c0.5,0.7,0.9,1.2,1.2,1.7
		c0.3,0.4,0.6,0.7,0.7,0.8c0.2,0.3,0.5,0.5,0.9,0.6c0.3,0.1,0.7,0.2,1,0.3s0.5,0.1,0.7,0.1c0.1,0.1,0.1,0.3,0.1,0.4s0,0.3-0.1,0.4
		c-0.3,0-0.8,0-1.3-0.1c-0.5,0-1,0-1.5-0.1c-0.5,0-0.9,0-1.3,0c-0.7,0-1.4,0-2,0s-1.3,0.1-2,0.1c0,0-0.1-0.1-0.1-0.3
		c0-0.1,0-0.3,0-0.4c0-0.1,0.1-0.2,0.1-0.2c0.1,0,0.3,0,0.5-0.1s0.4-0.1,0.6-0.2c0.2-0.1,0.3-0.2,0.3-0.4c0-0.1,0-0.2-0.1-0.2
		l-3.4-4.7c-0.1,0.1-0.3,0.4-0.6,0.7c-0.3,0.4-0.6,0.8-1,1.3c-0.4,0.5-0.7,0.9-1.1,1.4c-0.3,0.4-0.6,0.8-0.8,1.1
		c-0.1,0.2-0.2,0.3-0.2,0.4c0,0.2,0.1,0.3,0.4,0.4c0.2,0.1,0.5,0.2,0.9,0.3c0.3,0,0.6,0.1,0.9,0.1c0.1,0.1,0.1,0.2,0.1,0.4
		c0,0.2,0,0.3,0,0.5c-0.3,0-0.6,0-1-0.1c-0.4,0-0.8,0-1.2-0.1c-0.4,0-0.8,0-1.1,0c-0.7,0-1.2,0-1.7,0c-0.5,0-1,0.1-1.5,0.1
		c-0.1-0.1-0.1-0.2-0.1-0.4c0-0.2,0-0.4,0.1-0.4c0.1,0,0.3,0,0.6-0.1s0.7-0.1,1.1-0.3c0.4-0.2,0.8-0.4,1-0.7l4.5-5.7l-3.6-5
		c-0.2-0.3-0.5-0.7-0.7-1s-0.5-0.6-0.7-0.7c-0.1-0.1-0.3-0.1-0.5-0.2c-0.2,0-0.5-0.1-0.7-0.1c-0.2,0-0.4,0-0.5,0
		c0,0-0.1-0.1-0.1-0.2c0-0.1,0-0.3,0-0.4c0-0.1,0-0.2,0.1-0.3c0.6,0,1.3,0,2,0.1C294.9,366.8,295.5,366.9,296.2,366.9z"/>
	<path class="st0" d="M329.2,370.9c0,0.9-0.2,1.7-0.7,2.4s-1.1,1.2-1.9,1.6c-0.8,0.4-1.6,0.6-2.5,0.6c-0.5,0-0.8-0.1-1.2-0.2
		s-0.5-0.3-0.6-0.3c-0.1,0-0.1-0.1-0.1-0.3s-0.1-0.2-0.1-0.3c0-0.1,0-0.2,0.1-0.2c0.1,0,0.3,0.1,0.5,0.1s0.4,0,0.6,0
		c0.6,0,1.1-0.3,1.5-0.9c0.4-0.6,0.6-1.3,0.6-2.2c0-0.6-0.1-1.2-0.4-1.7c-0.2-0.5-0.6-1-1-1.3c-0.4-0.3-0.9-0.5-1.5-0.5
		c-0.3,0-0.5,0-0.8,0c-0.3,0-0.4,0.1-0.5,0.2c-0.1,0.1-0.1,0.3-0.1,0.5c0,0.2,0,0.4,0,0.7c0,0,0,0.1,0,0.1s0,0.1,0,0.1v9.4
		c0,0,0,0.1,0,0.2c0,0.1,0,0.1,0,0.2c0,0.4,0,0.8,0,1.1c0,0.3,0.1,0.6,0.2,0.8c0.1,0.1,0.2,0.2,0.4,0.2c0.2,0.1,0.5,0.1,0.7,0.1
		c0.3,0,0.4,0,0.5,0.1c0.1,0.1,0.1,0.2,0.1,0.4c0,0.2,0,0.4-0.1,0.4c-0.5,0-1.1-0.1-1.8-0.1c-0.7,0-1.3,0-1.9,0c-0.5,0-1.1,0-1.8,0
		c-0.7,0-1.3,0.1-1.8,0.1c-0.1-0.1-0.1-0.2-0.1-0.4c0-0.2,0-0.4,0.1-0.4c0.1,0,0.3,0,0.5-0.1c0.2,0,0.5-0.1,0.7-0.1
		c0.2-0.1,0.4-0.1,0.4-0.2c0.1-0.2,0.2-0.5,0.2-0.9c0-0.4,0-0.8,0-1.3v-8.6c0-0.5,0-0.9,0-1.3c0-0.4-0.1-0.7-0.2-0.9
		c0-0.1-0.2-0.2-0.4-0.2s-0.5-0.1-0.7-0.1s-0.4,0-0.5,0c-0.1-0.1-0.1-0.2-0.1-0.5c0-0.2,0-0.4,0.1-0.4c0.6,0,1.2,0.1,1.9,0.1
		c0.7,0,1.3,0,1.8,0c0.5,0,1.1,0,1.8,0c0.7,0,1.4,0,2.1,0c1.1,0,2,0.2,2.9,0.5c0.9,0.3,1.6,0.8,2.1,1.4
		C328.9,369.3,329.2,370,329.2,370.9z"/>
	<path class="st0" d="M339.4,366.8c0.2,0,0.6,0,1.1,0c0.5,0,1.1,0,1.8,0c0.7,0,1.4,0,2.1,0c0.7,0,1.4,0,1.9,0c0.6,0,1,0,1.3,0
		c0.1,0.6,0.2,1.2,0.3,1.8c0.1,0.6,0.3,1.1,0.4,1.7c0,0-0.1,0.1-0.3,0.1c-0.1,0-0.3,0-0.3,0c-0.2,0-0.3-0.1-0.4-0.2
		c-0.3-0.7-0.6-1.2-1-1.7s-1-0.7-1.8-0.7h-2.1c-0.3,0-0.5,0-0.8,0c-0.3,0-0.4,0.1-0.5,0.2c-0.1,0.1-0.1,0.3-0.1,0.5
		c0,0.2,0,0.4,0,0.7c0,0,0,0.1,0,0.1s0,0.1,0,0.1v4.2c0,0.1,0.1,0.1,0.3,0.2c0.2,0,0.5,0.1,0.8,0.1h1.3c0.5,0,0.9,0,1.2-0.1
		c0.3-0.1,0.5-0.2,0.6-0.5c0.2-0.2,0.3-0.6,0.4-1c0-0.1,0.1-0.2,0.3-0.2c0.2,0,0.4,0,0.5,0.1v4.5c0,0-0.1,0-0.2,0
		c-0.1,0-0.2,0-0.3,0c-0.2,0-0.3-0.1-0.4-0.2c-0.2-0.6-0.3-0.9-0.5-1.1s-0.3-0.3-0.4-0.3c-0.3-0.1-0.9-0.2-1.9-0.2
		c-0.2,0-0.5,0-0.8,0c-0.3,0-0.5,0-0.7,0.1c-0.2,0-0.3,0.1-0.3,0.2v3.6v0c0,0.1,0,0.2,0,0.5s0,0.5,0,0.7s0.1,0.5,0.1,0.6
		c0.1,0.2,0.3,0.3,0.7,0.4c0.3,0.1,0.7,0.1,1,0.1h1.7c0.5,0,0.9-0.1,1.3-0.2s0.8-0.3,1-0.6s0.5-0.6,0.7-0.9s0.4-0.8,0.7-1.3
		c0-0.1,0.1-0.1,0.3-0.1c0.1,0,0.3,0,0.5,0c0.2,0,0.3,0.1,0.3,0.1c-0.2,0.4-0.3,0.9-0.5,1.4s-0.4,1-0.5,1.4
		c-0.2,0.5-0.3,0.9-0.3,1.2c-0.2,0-0.6,0-1.2,0c-0.6,0-1.4,0-2.3,0c-0.9,0-1.8,0-2.8,0s-1.9,0-2.8,0s-1.6,0-2.2,0c-0.6,0-1,0-1.2,0
		c-0.1-0.1-0.1-0.2-0.1-0.4c0-0.2,0-0.4,0.1-0.4c0.1,0,0.3,0,0.5-0.1c0.2,0,0.5-0.1,0.7-0.1c0.2-0.1,0.4-0.1,0.4-0.2
		c0.1-0.2,0.2-0.5,0.2-0.9c0-0.4,0-0.8,0-1.3v-8.6c0-0.5,0-0.9,0-1.3c0-0.4-0.1-0.7-0.2-0.9c0-0.1-0.2-0.2-0.4-0.2
		c-0.2,0-0.5-0.1-0.7-0.1c-0.2,0-0.4,0-0.5,0c-0.1-0.1-0.1-0.2-0.1-0.5s0-0.4,0.1-0.4c0.6,0,1.2,0.1,1.9,0.1
		S338.8,366.8,339.4,366.8z"/>
	<path class="st0" d="M363.7,366.8c1.1,0,2,0.2,2.8,0.5c0.8,0.3,1.5,0.8,2,1.4s0.7,1.4,0.7,2.4c0,0.5-0.1,0.9-0.4,1.4
		c-0.2,0.4-0.5,0.8-0.9,1.2s-0.7,0.6-1.1,0.8c-0.4,0.2-0.7,0.4-1.1,0.4c0.6,0.8,1.2,1.5,1.8,2.1c0.6,0.7,1.2,1.4,1.9,2.2
		c0.6,0.7,1.3,1.3,1.9,1.6c0.6,0.3,1.2,0.5,1.6,0.6c0.4,0.1,0.7,0.1,0.8,0.1c0.1,0.1,0.1,0.2,0.1,0.5c0,0.2,0,0.4-0.1,0.4
		c-0.4,0-0.9,0-1.6,0.1c-0.7,0-1.3,0-1.8,0c-1,0-1.8-0.2-2.4-0.6c-0.7-0.4-1.1-0.8-1.4-1.2l-4.1-5.1c-0.2-0.2-0.4-0.4-0.5-0.4h-0.4
		v3.6c0,0,0,0.1,0,0.2c0,0.1,0,0.1,0,0.2c0,0.4,0,0.8,0,1.1c0,0.3,0.1,0.6,0.2,0.8c0.1,0.1,0.2,0.2,0.4,0.2c0.2,0.1,0.5,0.1,0.7,0.1
		c0.3,0,0.4,0,0.5,0.1c0.1,0.1,0.1,0.2,0.1,0.4c0,0.2,0,0.4-0.1,0.4c-0.5,0-1.1-0.1-1.8-0.1c-0.7,0-1.3,0-1.9,0s-1.1,0-1.8,0
		c-0.7,0-1.3,0.1-1.8,0.1c-0.1-0.1-0.1-0.2-0.1-0.4c0-0.2,0-0.4,0.1-0.4c0.1,0,0.3,0,0.5-0.1c0.2,0,0.5-0.1,0.7-0.1
		c0.2-0.1,0.4-0.1,0.4-0.2c0.1-0.2,0.2-0.5,0.2-0.9c0-0.4,0-0.8,0-1.3v-8.6c0-0.5,0-0.9,0-1.3c0-0.4-0.1-0.7-0.2-0.9
		c0-0.1-0.2-0.2-0.4-0.2c-0.2,0-0.5-0.1-0.7-0.1c-0.2,0-0.4,0-0.5,0c-0.1-0.1-0.1-0.2-0.1-0.5s0-0.4,0.1-0.4c0.6,0,1.2,0.1,1.9,0.1
		s1.3,0,1.8,0c0.5,0,1.1,0,1.8,0C362.2,366.8,362.9,366.8,363.7,366.8z M365.5,371.3c0-0.6-0.1-1.2-0.2-1.7c-0.1-0.5-0.4-1-0.8-1.3
		c-0.4-0.3-0.9-0.5-1.6-0.5c-0.3,0-0.5,0-0.8,0c-0.3,0-0.4,0.1-0.5,0.2c-0.1,0.1-0.1,0.3-0.1,0.5c0,0.2,0,0.4,0,0.7c0,0,0,0.1,0,0.1
		s0,0.1,0,0.1v4.9h1.1c0.5,0,0.9-0.1,1.4-0.4c0.4-0.3,0.8-0.6,1-1.1C365.3,372.4,365.5,371.9,365.5,371.3z"/>
	<path class="st0" d="M382.4,366.9c0.5,0,1.2,0,1.8,0c0.7,0,1.3-0.1,1.8-0.1c0.1,0.1,0.1,0.2,0.1,0.4c0,0.2,0,0.4-0.1,0.4
		c-0.1,0-0.3,0-0.5,0c-0.3,0-0.5,0.1-0.7,0.1s-0.4,0.1-0.4,0.3c-0.1,0.2-0.1,0.5-0.2,0.8c0,0.3,0,0.7,0,1.1c0,0,0,0.1,0,0.2
		c0,0.1,0,0.1,0,0.2v8.6c0,0,0,0.1,0,0.2c0,0.1,0,0.1,0,0.2c0,0.4,0,0.8,0,1.1c0,0.3,0.1,0.6,0.2,0.8c0.1,0.1,0.2,0.2,0.4,0.2
		c0.2,0.1,0.5,0.1,0.7,0.1c0.3,0,0.4,0,0.5,0.1c0.1,0.1,0.1,0.2,0.1,0.4c0,0.2,0,0.4-0.1,0.4c-0.5,0-1.1-0.1-1.8-0.1
		c-0.7,0-1.3,0-1.9,0s-1.1,0-1.8,0c-0.7,0-1.3,0.1-1.8,0.1c-0.1-0.1-0.1-0.2-0.1-0.4c0-0.2,0-0.4,0.1-0.4c0.1,0,0.3,0,0.5-0.1
		c0.2,0,0.5-0.1,0.7-0.1c0.2-0.1,0.4-0.1,0.4-0.2c0.1-0.2,0.2-0.5,0.2-0.9c0-0.4,0-0.8,0-1.3v-8.6c0-0.5,0-0.9,0-1.3
		c0-0.4-0.1-0.7-0.2-0.9c0-0.1-0.2-0.2-0.4-0.3c-0.2-0.1-0.5-0.1-0.7-0.1c-0.2,0-0.4,0-0.5,0c-0.1-0.1-0.1-0.2-0.1-0.4
		c0-0.2,0-0.4,0.1-0.4c0.5,0,1.1,0.1,1.8,0.1C381.3,366.9,381.9,366.9,382.4,366.9z"/>
	<path class="st0" d="M396.6,366.8c0.2,0,0.6,0,1.1,0c0.5,0,1.1,0,1.8,0c0.7,0,1.4,0,2.1,0c0.7,0,1.4,0,1.9,0c0.6,0,1,0,1.3,0
		c0.1,0.6,0.2,1.2,0.3,1.8c0.1,0.6,0.3,1.1,0.4,1.7c0,0-0.1,0.1-0.3,0.1c-0.1,0-0.3,0-0.3,0c-0.2,0-0.3-0.1-0.4-0.2
		c-0.3-0.7-0.6-1.2-1-1.7s-1-0.7-1.8-0.7h-2.1c-0.3,0-0.5,0-0.8,0c-0.3,0-0.4,0.1-0.5,0.2c-0.1,0.1-0.1,0.3-0.1,0.5
		c0,0.2,0,0.4,0,0.7c0,0,0,0.1,0,0.1s0,0.1,0,0.1v4.2c0,0.1,0.1,0.1,0.3,0.2c0.2,0,0.5,0.1,0.8,0.1h1.3c0.5,0,0.9,0,1.2-0.1
		c0.3-0.1,0.5-0.2,0.6-0.5c0.2-0.2,0.3-0.6,0.4-1c0-0.1,0.1-0.2,0.3-0.2c0.2,0,0.4,0,0.5,0.1v4.5c0,0-0.1,0-0.2,0
		c-0.1,0-0.2,0-0.3,0c-0.2,0-0.3-0.1-0.4-0.2c-0.2-0.6-0.3-0.9-0.5-1.1s-0.3-0.3-0.4-0.3c-0.3-0.1-0.9-0.2-1.9-0.2
		c-0.2,0-0.5,0-0.8,0c-0.3,0-0.5,0-0.7,0.1c-0.2,0-0.3,0.1-0.3,0.2v3.6v0c0,0.1,0,0.2,0,0.5s0,0.5,0,0.7s0.1,0.5,0.1,0.6
		c0.1,0.2,0.3,0.3,0.7,0.4c0.3,0.1,0.7,0.1,1,0.1h1.7c0.5,0,0.9-0.1,1.3-0.2s0.8-0.3,1-0.6s0.5-0.6,0.7-0.9s0.4-0.8,0.7-1.3
		c0-0.1,0.1-0.1,0.3-0.1c0.1,0,0.3,0,0.5,0c0.2,0,0.3,0.1,0.3,0.1c-0.2,0.4-0.3,0.9-0.5,1.4s-0.4,1-0.5,1.4
		c-0.2,0.5-0.3,0.9-0.3,1.2c-0.2,0-0.6,0-1.2,0c-0.6,0-1.4,0-2.3,0c-0.9,0-1.8,0-2.8,0s-1.9,0-2.8,0s-1.6,0-2.2,0c-0.6,0-1,0-1.2,0
		c-0.1-0.1-0.1-0.2-0.1-0.4c0-0.2,0-0.4,0.1-0.4c0.1,0,0.3,0,0.5-0.1c0.2,0,0.5-0.1,0.7-0.1c0.2-0.1,0.4-0.1,0.4-0.2
		c0.1-0.2,0.2-0.5,0.2-0.9c0-0.4,0-0.8,0-1.3v-8.6c0-0.5,0-0.9,0-1.3c0-0.4-0.1-0.7-0.2-0.9c0-0.1-0.2-0.2-0.4-0.2
		c-0.2,0-0.5-0.1-0.7-0.1c-0.2,0-0.4,0-0.5,0c-0.1-0.1-0.1-0.2-0.1-0.5s0-0.4,0.1-0.4c0.6,0,1.2,0.1,1.9,0.1
		S396.1,366.8,396.6,366.8z"/>
	<path class="st0" d="M416.2,366.9c0.5,0,0.9,0,1.4,0c0.5,0,1-0.1,1.4-0.1c0.2,0.4,0.7,1,1.2,1.8c0.6,0.7,1.3,1.5,2,2.4
		c0.8,0.9,1.6,1.8,2.4,2.7s1.7,1.9,2.5,2.8c0-0.1,0.1-0.2,0.1-0.4c0-0.2,0-0.4,0-0.5v-4.4c0-0.3,0-0.7,0-1.1c0-0.4-0.1-0.8-0.1-1.2
		c0-0.4-0.1-0.6-0.2-0.7c-0.1-0.1-0.3-0.3-0.5-0.3c-0.3-0.1-0.6-0.1-0.9-0.1c-0.3,0-0.5,0-0.6,0c0,0,0-0.1-0.1-0.3s0-0.4,0.1-0.5
		c0.6,0,1.1,0,1.6,0.1c0.4,0,1,0.1,1.6,0.1c0.6,0,1.1,0,1.6-0.1c0.5,0,1.1-0.1,1.6-0.1c0,0.1,0.1,0.2,0.1,0.4c0,0.2,0,0.4-0.1,0.5
		c-0.1,0-0.3,0-0.6,0s-0.6,0.1-1,0.1c-0.3,0.1-0.5,0.2-0.6,0.4c0,0.1-0.1,0.3-0.1,0.7c0,0.4-0.1,0.7-0.1,1.1s0,0.8,0,1v8
		c0,0.7,0,1.3,0,1.7c0,0.4,0,1,0.1,1.6c0,0-0.1,0.1-0.3,0.1s-0.3,0-0.3,0c-0.1,0-0.2-0.1-0.4-0.2c-0.1-0.1-0.3-0.2-0.4-0.4
		l-10.4-11.7v8.5c0,0.4,0,0.9,0.1,1.3s0.1,0.8,0.2,0.9c0.1,0.1,0.3,0.3,0.6,0.4c0.3,0.1,0.6,0.2,0.9,0.2c0.3,0,0.5,0.1,0.6,0.1
		c0.1,0.1,0.1,0.3,0.1,0.5c0,0.2,0,0.3-0.1,0.4c-0.5,0-1-0.1-1.6-0.1c-0.5,0-1.1-0.1-1.6-0.1c-0.6,0-1.1,0-1.6,0.1
		c-0.4,0-1,0.1-1.6,0.1c-0.1-0.1-0.1-0.3-0.1-0.5c0-0.2,0-0.3,0.1-0.3c0.1,0,0.3,0,0.6-0.1c0.3,0,0.6-0.1,0.9-0.2s0.5-0.2,0.5-0.3
		c0.1-0.2,0.2-0.5,0.2-1c0.1-0.5,0.1-0.9,0.1-1.4v-8.3c0-0.3,0-0.7-0.1-1.1s-0.2-0.8-0.4-1c-0.1-0.1-0.2-0.2-0.5-0.3
		c-0.2-0.1-0.5-0.1-0.7-0.2c-0.2,0-0.4-0.1-0.5-0.1c0,0-0.1-0.1-0.1-0.2c0-0.1,0-0.3,0-0.4s0-0.2,0.1-0.3c0.4,0,0.8,0,1.3,0.1
		C415.1,366.9,415.7,366.9,416.2,366.9z"/>
	<path class="st0" d="M446.3,366.6c0.8,0,1.7,0,2.7,0.1c1,0.1,1.8,0.2,2.6,0.3c0,0.1,0.1,0.3,0.2,0.6s0.2,0.7,0.3,1.1
		c0.1,0.4,0.2,0.8,0.3,1.2c0.1,0.3,0.1,0.6,0.1,0.6c0,0.1-0.1,0.1-0.2,0.2c-0.1,0.1-0.3,0.1-0.4,0.1c-0.1,0-0.1,0-0.2,0
		c-0.1,0-0.1,0-0.2-0.1c-0.1-0.2-0.2-0.5-0.4-0.9s-0.5-0.7-0.8-1.1s-0.8-0.7-1.4-0.9c-0.6-0.2-1.4-0.4-2.3-0.4
		c-1.2,0-2.2,0.3-2.9,0.9c-0.7,0.6-1.3,1.4-1.6,2.3c-0.3,1-0.5,2-0.5,3.1c0,0.9,0.1,1.8,0.3,2.7s0.5,1.7,1,2.4
		c0.4,0.7,1,1.3,1.7,1.7c0.7,0.4,1.5,0.6,2.5,0.6c0.8,0,1.4-0.1,1.9-0.3c0.5-0.2,0.9-0.4,1.3-0.7c0.4-0.3,0.7-0.7,0.9-1.1
		c0.3-0.4,0.5-0.8,0.6-1.2c0.1-0.4,0.2-0.6,0.2-0.6c0.4,0,0.7,0.1,0.9,0.3c0,0.1,0,0.3-0.1,0.6c-0.1,0.4-0.2,0.8-0.3,1.2
		c-0.1,0.4-0.2,0.8-0.3,1.2c-0.1,0.3-0.2,0.5-0.3,0.6c-0.8,0.3-1.6,0.5-2.5,0.7c-0.9,0.2-1.9,0.4-3.1,0.4c-1.2,0-2.3-0.2-3.4-0.6
		c-1.1-0.4-2-0.9-2.8-1.6c-0.8-0.7-1.4-1.5-1.9-2.4c-0.5-0.9-0.7-2-0.7-3.1c0-1.1,0.2-2.2,0.7-3.2c0.5-1,1.1-1.8,1.9-2.6
		c0.8-0.7,1.7-1.3,2.8-1.7C444,366.8,445.1,366.6,446.3,366.6z"/>
	<path class="st0" d="M463.3,366.8c0.2,0,0.6,0,1.1,0c0.5,0,1.1,0,1.8,0c0.7,0,1.4,0,2.1,0c0.7,0,1.4,0,1.9,0c0.6,0,1,0,1.3,0
		c0.1,0.6,0.2,1.2,0.3,1.8c0.1,0.6,0.3,1.1,0.4,1.7c0,0-0.1,0.1-0.3,0.1c-0.1,0-0.3,0-0.3,0c-0.2,0-0.3-0.1-0.4-0.2
		c-0.3-0.7-0.6-1.2-1-1.7s-1-0.7-1.8-0.7h-2.1c-0.3,0-0.5,0-0.8,0c-0.3,0-0.4,0.1-0.5,0.2c-0.1,0.1-0.1,0.3-0.1,0.5
		c0,0.2,0,0.4,0,0.7c0,0,0,0.1,0,0.1s0,0.1,0,0.1v4.2c0,0.1,0.1,0.1,0.3,0.2c0.2,0,0.5,0.1,0.8,0.1h1.3c0.5,0,0.9,0,1.2-0.1
		c0.3-0.1,0.5-0.2,0.6-0.5c0.2-0.2,0.3-0.6,0.4-1c0-0.1,0.1-0.2,0.3-0.2c0.2,0,0.4,0,0.5,0.1v4.5c0,0-0.1,0-0.2,0
		c-0.1,0-0.2,0-0.3,0c-0.2,0-0.3-0.1-0.4-0.2c-0.2-0.6-0.3-0.9-0.5-1.1s-0.3-0.3-0.4-0.3c-0.3-0.1-0.9-0.2-1.9-0.2
		c-0.2,0-0.5,0-0.8,0c-0.3,0-0.5,0-0.7,0.1c-0.2,0-0.3,0.1-0.3,0.2v3.6v0c0,0.1,0,0.2,0,0.5s0,0.5,0,0.7s0.1,0.5,0.1,0.6
		c0.1,0.2,0.3,0.3,0.7,0.4c0.3,0.1,0.7,0.1,1,0.1h1.7c0.5,0,0.9-0.1,1.3-0.2s0.8-0.3,1-0.6s0.5-0.6,0.7-0.9s0.4-0.8,0.7-1.3
		c0-0.1,0.1-0.1,0.3-0.1c0.1,0,0.3,0,0.5,0c0.2,0,0.3,0.1,0.3,0.1c-0.2,0.4-0.3,0.9-0.5,1.4s-0.4,1-0.5,1.4
		c-0.2,0.5-0.3,0.9-0.3,1.2c-0.2,0-0.6,0-1.2,0c-0.6,0-1.4,0-2.3,0c-0.9,0-1.8,0-2.8,0s-1.9,0-2.8,0s-1.6,0-2.2,0c-0.6,0-1,0-1.2,0
		c-0.1-0.1-0.1-0.2-0.1-0.4c0-0.2,0-0.4,0.1-0.4c0.1,0,0.3,0,0.5-0.1c0.2,0,0.5-0.1,0.7-0.1c0.2-0.1,0.4-0.1,0.4-0.2
		c0.1-0.2,0.2-0.5,0.2-0.9c0-0.4,0-0.8,0-1.3v-8.6c0-0.5,0-0.9,0-1.3c0-0.4-0.1-0.7-0.2-0.9c0-0.1-0.2-0.2-0.4-0.2
		c-0.2,0-0.5-0.1-0.7-0.1c-0.2,0-0.4,0-0.5,0c-0.1-0.1-0.1-0.2-0.1-0.5s0-0.4,0.1-0.4c0.6,0,1.2,0.1,1.9,0.1
		S462.8,366.8,463.3,366.8z"/>
</g>
<g>
	<path class="st0" d="M399.9,345.3c-4.3-2.8-8.5-5.4-12.7-8.1c-11.3-7.2-22.6-14.5-33.9-21.6c-1.3-0.8-1.8-2-2.2-3.3
		c-10.1-31.7-20.3-63.5-30.5-95.2c-0.2-0.8-0.5-1.5-0.9-2.5c-0.8,0.8-0.9,1.6-1.2,2.4c-10.2,31.7-20.3,63.4-30.5,95.2
		c-0.5,1.6-1.3,2.7-2.8,3.7c-14.7,9.3-29.3,18.7-43.9,28c-0.7,0.4-1.3,0.8-2.1,1.2c-0.2-1,0.4-1.5,0.7-2.1
		c23.1-44.3,46.3-88.6,69.5-132.8c0.6-1.2,0.7-2.1,0.1-3.3c-20.1-38.3-40.1-76.7-60.2-115c-3.4-6.6-6.9-13.1-10-20.1
		c2.3,1.5,4.7,2.9,7,4.4c13.2,8.4,26.4,16.9,39.6,25.3c1.3,0.8,1.6,1.9,2,3.1c10.2,31.8,20.4,63.6,30.5,95.4
		c0.2,0.7,0.3,1.6,1.2,2.3c0.8-2.3,1.5-4.5,2.2-6.7c9.7-30.3,19.4-60.5,29-90.8c0.5-1.7,1.4-2.9,2.9-3.9
		c14.7-9.3,29.4-18.8,44.1-28.2c0.5-0.3,1.1-0.7,1.7-1c0.5,0.8-0.1,1.3-0.4,1.8c-23.2,44.4-46.4,88.7-69.6,133.1
		c-0.6,1.1-0.9,2-0.2,3.3c14.7,28.1,29.4,56.2,44.1,84.3c8.4,16.1,16.8,32.2,25.3,48.3C399.3,343.4,400,344,399.9,345.3"/>
	<path class="st0" d="M162,209c0-23,0-46.1,0-69.1c0-3.6,0-3.6,3.8-3.6c5.1,0,10.2,0.1,15.3,0c1.9,0,2.7,0.4,2.7,2.5
		c-0.1,46.8,0,93.6,0,140.4c0,2-0.7,2.7-2.7,2.6c-5.4-0.1-10.8-0.1-16.2,0c-2.3,0.1-2.8-0.8-2.8-3C162,255.5,162,232.3,162,209"/>
	<path class="st0" d="M452.9,208.7c0-23.2,0-46.4,0-69.6c0-2.3,0.6-3,3-3c5.2,0.2,10.5,0.2,15.8,0c2.3-0.1,2.8,0.8,2.8,2.9
		c-0.1,30.1,0,60.3,0,90.4c0,16.4,0,32.8,0,49.2c0,2.3-0.7,3.1-3,3c-5.1-0.2-10.2,0-15.3-0.1c-3.3,0-3.3,0-3.3-3.4
		C452.9,255.1,452.9,231.9,452.9,208.7"/>
	<path class="st0" d="M344.8,101.8c-8.5,27.4-16.8,54.6-25.4,82.5c-2.3-7.1-4.3-13.6-6.4-20c-6.3-19.8-12.6-39.7-18.9-59.5
		c-0.7-2.1-0.4-2.6,1.8-2.5c3,0.1,6,0,8.9-0.4c3-0.4,5.3,0.5,7.4,2.6c0.7,0.8,1.6,1.4,2.4,2c4.6,3.7,4.8,3.9,9-0.3
		c3.3-3.4,6.8-5,11.6-4.4C338.2,102.1,341.4,101.8,344.8,101.8"/>
	<path class="st0" d="M319.4,233.2c8.6,27.9,17,55.1,25.4,82.5c-5.3,0-10.3,0-15.3,0c-0.9,0-1.5-0.6-2.1-1.1c-2.3-2-4.7-4-6.9-6.1
		c-1-0.9-1.7-1.2-2.8-0.1c-1.4,1.3-3.2,2.3-4.4,3.7c-2.8,3.1-6.1,4-10.2,3.5c-3.1-0.4-6.3-0.4-9.7-0.6
		C302,287.9,310.6,260.9,319.4,233.2"/>
	<path class="st0" d="M417.6,157.1c-7.8,0-15.7-0.1-23.5,0c-2.1,0-2.8-0.6-2.8-2.8c0.1-5.2,0.1-10.5,0-15.7c0-1.8,0.6-2.4,2.4-2.4
		c15.9,0,31.8,0,47.7,0c1.7,0,2.3,0.6,2.3,2.2c-0.1,5.4-0.1,10.8,0,16.2c0,1.8-0.7,2.4-2.4,2.4C433.5,157,425.5,157.1,417.6,157.1"
		/>
	<path class="st0" d="M218.9,157.1c-7.8,0-15.5-0.1-23.3,0c-2.2,0-3.1-0.6-3-2.9c0.1-5.1,0.1-10.2,0-15.3c0-1.8,0.4-2.8,2.6-2.8
		c15.8,0.1,31.5,0.1,47.3,0c1.9,0,2.6,0.5,2.5,2.5c-0.1,5.2-0.1,10.5,0,15.8c0,2-0.6,2.7-2.6,2.7C234.6,157,226.7,157.1,218.9,157.1
		"/>
	<path class="st0" d="M218.9,281.7c-7.8,0-15.7-0.1-23.5,0c-2.2,0-2.8-0.8-2.8-2.8c0.1-5.1,0.1-10.2,0-15.3c0-1.7,0.4-2.5,2.3-2.5
		c15.9,0.1,31.8,0.1,47.8,0c1.9,0,2.3,0.7,2.3,2.4c-0.1,5.3-0.1,10.5,0,15.8c0,1.8-0.5,2.4-2.3,2.4
		C234.8,281.7,226.9,281.7,218.9,281.7"/>
	<path class="st0" d="M417.6,281.7c-7.9,0-15.8-0.1-23.7,0c-1.9,0-2.6-0.5-2.5-2.5c0.1-5.2,0.1-10.5,0-15.7c0-1.8,0.6-2.4,2.4-2.3
		c15.9,0,31.8,0.1,47.7,0c1.9,0,2.4,0.7,2.3,2.4c-0.1,5.2-0.1,10.5,0,15.7c0,1.8-0.7,2.4-2.4,2.4
		C433.4,281.7,425.5,281.7,417.6,281.7"/>
	<path class="st0" d="M210.8,219.7c-5.2,0-10.5-0.1-15.7,0c-1.8,0-2.5-0.7-2.4-2.4c0-5.3,0-10.6,0-16c0-1.7,0.8-2.3,2.3-2.3
		c10.5,0,21,0,31.5,0c1.8,0,2.6,0.6,2.5,2.6c-0.1,5.2-0.1,10.5,0,15.7c0,1.8-0.6,2.4-2.4,2.4C221.3,219.6,216.1,219.7,210.8,219.7"
		/>
	<path class="st0" d="M425.6,219.7c-5.2,0-10.5-0.1-15.7,0c-1.8,0-2.4-0.6-2.4-2.4c0.1-5.2,0.1-10.5,0-15.7c0-1.8,0.6-2.4,2.4-2.4
		c10.5,0.1,21,0.1,31.5,0c1.8,0,2.4,0.6,2.4,2.4c-0.1,5.2-0.1,10.5,0,15.7c0,1.8-0.6,2.4-2.4,2.4
		C436.1,219.6,430.9,219.7,425.6,219.7"/>
</g>
<g>
</g>
<g>
</g>
<g>
</g>
<g>
</g>
<g>
</g>
<g>
</g>
<g>
</g>
<g>
</g>
<g>
</g>
<g>
</g>
<g>
</g>
<g>
</g>
<g>
</g>
<g>
</g>
<g>
</g>
</svg>
