<?xml version="1.0" encoding="utf-8"?>
<!-- Generator: Adobe Illustrator 22.0.1, SVG Export Plug-In . SVG Version: 6.00 Build 0)  -->
<svg version="1.1" id="Capa_1" xmlns="http://www.w3.org/2000/svg" xmlns:xlink="http://www.w3.org/1999/xlink" x="0px" y="0px"
	 viewBox="0 0 1000 1000" style="enable-background:new 0 0 1000 1000;" xml:space="preserve">
<style type="text/css">
	.st0{clip-path:url(#SVGID_2_);fill:#C09C60;}
	.st1{fill:#C09C60;}
	.st2{font-family:'Amiri-Bold';}
	.st3{font-size:50.4037px;}
	.st4{letter-spacing:9;}
</style>
<g>
	<defs>
		<rect id="SVGID_1_" width="1000" height="1000"/>
	</defs>
	<clipPath id="SVGID_2_">
		<use xlink:href="#SVGID_1_"  style="overflow:visible;"/>
	</clipPath>
	<path class="st0" d="M673.3,653.4c-8.1-5.2-16-10.1-23.8-15.1c-21.1-13.5-42.2-27-63.4-40.4c-2.5-1.6-3.3-3.7-4.1-6.1
		c-19-59.3-38-118.7-57-178c-0.4-1.4-1-2.8-1.6-4.6c-1.6,1.4-1.7,3.1-2.2,4.6c-19,59.3-38,118.6-56.9,178c-1,3.1-2.5,5.1-5.2,6.9
		C431.6,616,404.3,633.5,377,651c-1.2,0.8-2.5,1.5-3.9,2.3c-0.4-1.8,0.7-2.9,1.3-4c43.3-82.8,86.5-165.6,129.9-248.4
		c1.2-2.2,1.3-3.9,0.1-6.2c-37.6-71.7-75-143.4-112.5-215.1c-6.4-12.3-12.8-24.5-18.6-37.5c4.4,2.7,8.7,5.5,13.1,8.2
		c24.7,15.8,49.3,31.6,74.1,47.3c2.3,1.5,3.1,3.5,3.8,5.8c19,59.5,38.1,118.9,57.1,178.4c0.4,1.4,0.5,2.9,2.2,4.4
		c1.4-4.4,2.8-8.4,4.1-12.5c18.1-56.6,36.3-113.2,54.3-169.8c1-3.2,2.6-5.4,5.5-7.2c27.6-17.5,55-35.1,82.5-52.6
		c1-0.6,2.1-1.2,3.1-1.9c0.9,1.5-0.3,2.4-0.8,3.3c-43.3,83-86.7,165.9-130.1,248.8c-1.1,2.1-1.7,3.7-0.4,6.2
		c27.6,52.5,55,105.1,82.5,157.7c15.7,30.1,31.5,60.2,47.2,90.3C672.3,649.8,673.5,651.1,673.3,653.4"/>
	<path class="st0" d="M228.5,398.6c0-43.1,0-86.1,0-129.2c0-6.8,0-6.8,7-6.8c9.5,0,19,0.1,28.6-0.1c3.6-0.1,5.1,0.8,5.1,4.8
		c-0.1,87.5-0.1,175,0,262.5c0,3.8-1.3,5-5.1,4.9c-10.1-0.2-20.3-0.3-30.4,0c-4.4,0.1-5.3-1.5-5.3-5.5
		C228.6,485.6,228.5,442.1,228.5,398.6"/>
	<path class="st0" d="M765,398.1c0-43.4,0.1-86.7-0.1-130.1c0-4.4,1.2-5.7,5.6-5.5c9.8,0.3,19.6,0.3,29.5,0c4.4-0.1,5.3,1.4,5.3,5.5
		c-0.1,56.4-0.1,112.7-0.1,169.1c0,30.7-0.1,61.3,0.1,92c0,4.4-1.2,5.8-5.6,5.6c-9.5-0.3-19-0.1-28.6-0.1c-6.1,0-6.1,0-6.1-6.4
		C765,484.8,765,441.5,765,398.1"/>
	<path class="st0" d="M570.3,198.2c-15.8,51.3-31.5,102.1-47.5,154.2c-4.2-13.3-8.1-25.4-11.9-37.4c-11.8-37.1-23.5-74.2-35.4-111.2
		c-1.3-3.9-0.7-4.8,3.4-4.8c5.6,0.1,11.2-0.1,16.7-0.8c5.6-0.7,10,0.9,13.8,4.9c1.4,1.4,3,2.5,4.5,3.8c8.5,6.9,8.9,7.3,16.8-0.6
		c6.2-6.3,12.7-9.3,21.6-8.2C558,198.8,564,198.2,570.3,198.2"/>
	<path class="st0" d="M522.8,443.8c16.1,52.2,31.7,103,47.5,154.2c-9.9,0-19.3,0-28.6,0c-1.7,0-2.7-1-3.9-2
		c-4.3-3.8-8.7-7.5-12.9-11.4c-1.9-1.7-3.1-2.3-5.2-0.2c-2.6,2.5-5.9,4.3-8.3,7c-5.2,5.8-11.5,7.5-19.1,6.5
		c-5.8-0.8-11.7-0.7-18.2-1.1C490.3,546.1,506.3,495.7,522.8,443.8"/>
	<path class="st0" d="M699.1,301.5c-14.6,0-29.3-0.1-43.9,0.1c-4,0.1-5.3-1.2-5.2-5.2c0.3-9.8,0.2-19.6,0-29.4
		c-0.1-3.4,1.1-4.5,4.5-4.5c29.7,0.1,59.5,0.1,89.2,0c3.1,0,4.3,1,4.3,4.2c-0.1,10.1-0.1,20.2,0,30.3c0,3.3-1.2,4.5-4.5,4.5
		C728.6,301.4,713.8,301.5,699.1,301.5"/>
	<path class="st0" d="M334.9,301.5c-14.5,0-29-0.1-43.5,0.1c-4.1,0.1-5.7-1.1-5.6-5.4c0.2-9.5,0.1-19,0-28.6c0-3.4,0.8-5.2,4.8-5.2
		c29.5,0.2,58.9,0.1,88.4,0c3.5,0,4.8,0.9,4.7,4.6c-0.2,9.8-0.2,19.6,0,29.5c0.1,3.7-1,5-4.9,5C364.2,301.4,349.6,301.5,334.9,301.5
		"/>
	<path class="st0" d="M335,534.6c-14.7,0-29.3-0.1-44,0.1c-4.1,0.1-5.3-1.4-5.2-5.2c0.2-9.5,0.1-19,0-28.6c0-3.1,0.8-4.6,4.3-4.6
		c29.8,0.1,59.5,0.1,89.3,0c3.5,0,4.4,1.3,4.3,4.5c-0.2,9.8-0.2,19.6,0,29.5c0.1,3.3-0.9,4.5-4.4,4.4
		C364.6,534.5,349.8,534.6,335,534.6"/>
	<path class="st0" d="M699.1,534.6c-14.8,0-29.6-0.1-44.4,0.1c-3.5,0-4.8-0.9-4.7-4.6c0.2-9.8,0.2-19.6,0-29.4
		c-0.1-3.4,1.1-4.4,4.4-4.4c29.7,0.1,59.4,0.1,89.2,0c3.5,0,4.4,1.4,4.4,4.6c-0.1,9.8-0.1,19.6,0,29.4c0,3.4-1.3,4.4-4.6,4.4
		C728.6,534.5,713.8,534.6,699.1,534.6"/>
	<path class="st0" d="M319.8,418.6c-9.8,0-19.6-0.1-29.4,0.1c-3.4,0.1-4.6-1.3-4.6-4.5c0.1-10,0.1-19.9,0-29.9
		c0-3.1,1.4-4.3,4.4-4.3c19.6,0,39.2,0,58.8,0c3.3,0,4.8,1.2,4.7,4.8c-0.2,9.8-0.2,19.6,0,29.4c0.1,3.4-1.1,4.5-4.5,4.4
		C339.4,418.5,329.6,418.6,319.8,418.6"/>
	<path class="st0" d="M714,418.6c-9.8,0-19.6-0.1-29.5,0.1c-3.4,0.1-4.5-1.2-4.5-4.5c0.1-9.8,0.1-19.6,0-29.5
		c-0.1-3.3,1.1-4.5,4.5-4.5c19.6,0.1,39.3,0.1,58.9,0c3.4,0,4.5,1.2,4.5,4.5c-0.1,9.8-0.1,19.6,0,29.5c0,3.3-1.2,4.5-4.5,4.5
		C733.7,418.5,723.8,418.6,714,418.6"/>
</g>
<text transform="matrix(1 0 0 1 215.3364 745.3076)"><tspan x="0" y="0" class="st1 st2 st3 st4">E</tspan><tspan x="39.4" y="0" class="st1 st2 st3 st4">L</tspan><tspan x="77.6" y="0" class="st1 st2 st3 st4">I</tspan><tspan x="105" y="0" class="st1 st2 st3 st4">T</tspan><tspan x="146" y="0" class="st1 st2 st3 st4">E E</tspan><tspan x="249.2" y="0" class="st1 st2 st3 st4">XP</tspan><tspan x="332.4" y="0" class="st1 st2 st3 st4">ER</tspan><tspan x="415.6" y="0" class="st1 st2 st3 st4">I</tspan><tspan x="443" y="0" class="st1 st2 st3 st4">E</tspan><tspan x="482.4" y="0" class="st1 st2 st3 st4">N</tspan><tspan x="528.9" y="0" class="st1 st2 st3 st4">C</tspan><tspan x="571.8" y="0" class="st1 st2 st3">E</tspan></text>
</svg>
